<svg width="1213" height="1213" viewBox="0 0 1213 1213" fill="none" xmlns="http://www.w3.org/2000/svg">
<path fill-rule="evenodd" clip-rule="evenodd" d="M1212 606.5C1212 940.908 940.908 1212 606.5 1212C272.092 1212 1 940.908 1 606.5C1 272.092 272.092 1 606.5 1C940.908 1 1212 272.092 1212 606.5ZM1213 606.5C1213 941.461 941.461 1213 606.5 1213C271.539 1213 0 941.461 0 606.5C0 271.539 271.539 0 606.5 0C941.461 0 1213 271.539 1213 606.5ZM870.604 605.951C870.604 751.508 752.606 869.506 607.049 869.506C461.492 869.506 343.494 751.508 343.494 605.951C343.494 460.394 461.492 342.396 607.049 342.396C752.606 342.396 870.604 460.394 870.604 605.951ZM871.604 605.951C871.604 752.061 753.158 870.506 607.049 870.506C460.939 870.506 342.494 752.061 342.494 605.951C342.494 459.842 460.939 341.396 607.049 341.396C753.158 341.396 871.604 459.842 871.604 605.951ZM606.5 1092.35C874.826 1092.35 1092.35 874.826 1092.35 606.5C1092.35 338.174 874.826 120.654 606.5 120.654C338.174 120.654 120.653 338.174 120.653 606.5C120.653 874.826 338.174 1092.35 606.5 1092.35ZM606.5 1093.35C875.378 1093.35 1093.35 875.378 1093.35 606.5C1093.35 337.622 875.378 119.654 606.5 119.654C337.622 119.654 119.653 337.622 119.653 606.5C119.653 875.378 337.622 1093.35 606.5 1093.35ZM961.716 606.5C961.716 802.68 802.68 961.716 606.5 961.716C410.32 961.716 251.284 802.68 251.284 606.5C251.284 410.32 410.32 251.284 606.5 251.284C802.68 251.284 961.716 410.32 961.716 606.5ZM962.716 606.5C962.716 803.232 803.233 962.716 606.5 962.716C409.767 962.716 250.284 803.232 250.284 606.5C250.284 409.767 409.767 250.284 606.5 250.284C803.233 250.284 962.716 409.767 962.716 606.5Z" fill="#373737"/>
</svg>
