<svg width="1361" height="1361" viewBox="0 0 1361 1361" fill="none" xmlns="http://www.w3.org/2000/svg">
<path fill-rule="evenodd" clip-rule="evenodd" d="M1360 680.5C1360 1055.78 1055.78 1360 680.5 1360C305.223 1360 1 1055.78 1 680.5C1 305.223 305.223 1 680.5 1C1055.78 1 1360 305.223 1360 680.5ZM1361 680.5C1361 1056.33 1056.33 1361 680.5 1361C304.67 1361 0 1056.33 0 680.5C0 304.67 304.67 0 680.5 0C1056.33 0 1361 304.67 1361 680.5ZM976.949 679.884C976.949 843.268 844.5 975.718 681.116 975.718C517.731 975.718 385.282 843.268 385.282 679.884C385.282 516.5 517.731 384.051 681.116 384.051C844.5 384.051 976.949 516.5 976.949 679.884ZM977.949 679.884C977.949 843.821 845.052 976.718 681.116 976.718C517.179 976.718 384.282 843.821 384.282 679.884C384.282 515.948 517.179 383.051 681.116 383.051C845.052 383.051 977.949 515.948 977.949 679.884ZM680.5 1225.75C981.632 1225.75 1225.75 981.632 1225.75 680.5C1225.75 379.368 981.632 135.252 680.5 135.252C379.368 135.252 135.253 379.368 135.253 680.5C135.253 981.632 379.368 1225.75 680.5 1225.75ZM680.5 1226.75C982.184 1226.75 1226.75 982.184 1226.75 680.5C1226.75 378.816 982.184 134.252 680.5 134.252C378.816 134.252 134.253 378.816 134.253 680.5C134.253 982.184 378.816 1226.75 680.5 1226.75ZM1079.18 680.5C1079.18 900.684 900.684 1079.18 680.5 1079.18C460.316 1079.18 281.822 900.684 281.822 680.5C281.822 460.316 460.316 281.821 680.5 281.821C900.684 281.821 1079.18 460.316 1079.18 680.5ZM1080.18 680.5C1080.18 901.236 901.236 1080.18 680.5 1080.18C459.764 1080.18 280.822 901.236 280.822 680.5C280.822 459.763 459.764 280.821 680.5 280.821C901.236 280.821 1080.18 459.763 1080.18 680.5Z" fill="#373737"/>
</svg>
