<svg width="917" height="917" viewBox="0 0 917 917" fill="none" xmlns="http://www.w3.org/2000/svg">
<path fill-rule="evenodd" clip-rule="evenodd" d="M916 458.5C916 711.17 711.17 916 458.5 916C205.83 916 1 711.17 1 458.5C1 205.83 205.83 1 458.5 1C711.17 1 916 205.83 916 458.5ZM917 458.5C917 711.723 711.723 917 458.5 917C205.277 917 0 711.723 0 458.5C0 205.277 205.277 0 458.5 0C711.723 0 917 205.277 917 458.5ZM657.912 458.085C657.912 567.988 568.818 657.082 458.915 657.082C349.012 657.082 259.918 567.988 259.918 458.085C259.918 348.182 349.012 259.088 458.915 259.088C568.818 259.088 657.912 348.182 657.912 458.085ZM658.912 458.085C658.912 568.541 569.37 658.082 458.915 658.082C348.46 658.082 258.918 568.541 258.918 458.085C258.918 347.63 348.46 258.088 458.915 258.088C569.37 258.088 658.912 347.63 658.912 458.085ZM458.5 825.545C661.213 825.545 825.545 661.213 825.545 458.5C825.545 255.787 661.213 91.4552 458.5 91.4552C255.787 91.4552 91.4552 255.787 91.4552 458.5C91.4552 661.213 255.787 825.545 458.5 825.545ZM458.5 826.545C661.766 826.545 826.545 661.766 826.545 458.5C826.545 255.234 661.766 90.4552 458.5 90.4552C255.234 90.4552 90.4552 255.234 90.4552 458.5C90.4552 661.766 255.234 826.545 458.5 826.545ZM726.791 458.5C726.791 606.673 606.673 726.791 458.5 726.791C310.327 726.791 190.209 606.673 190.209 458.5C190.209 310.327 310.327 190.209 458.5 190.209C606.673 190.209 726.791 310.327 726.791 458.5ZM727.791 458.5C727.791 607.225 607.225 727.791 458.5 727.791C309.775 727.791 189.209 607.225 189.209 458.5C189.209 309.775 309.775 189.209 458.5 189.209C607.225 189.209 727.791 309.775 727.791 458.5Z" fill="#373737"/>
</svg>
