<svg width="1435" height="1435" viewBox="0 0 1435 1435" fill="none" xmlns="http://www.w3.org/2000/svg">
<path fill-rule="evenodd" clip-rule="evenodd" d="M1434 717.5C1434 1113.21 1113.21 1434 717.5 1434C321.788 1434 1 1113.21 1 717.5C1 321.788 321.788 1 717.5 1C1113.21 1 1434 321.788 1434 717.5ZM1435 717.5C1435 1113.76 1113.76 1435 717.5 1435C321.236 1435 0 1113.76 0 717.5C0 321.236 321.236 0 717.5 0C1113.76 0 1435 321.236 1435 717.5ZM1030.12 716.851C1030.12 889.149 890.447 1028.82 718.149 1028.82C545.852 1028.82 406.176 889.149 406.176 716.851C406.176 544.553 545.852 404.878 718.149 404.878C890.447 404.878 1030.12 544.553 1030.12 716.851ZM1031.12 716.851C1031.12 889.701 890.999 1029.82 718.149 1029.82C545.299 1029.82 405.176 889.701 405.176 716.851C405.176 544.001 545.299 403.878 718.149 403.878C890.999 403.878 1031.12 544.001 1031.12 716.851ZM717.5 1292.45C1035.03 1292.45 1292.45 1035.03 1292.45 717.5C1292.45 399.965 1035.03 142.552 717.5 142.552C399.965 142.552 142.552 399.965 142.552 717.5C142.552 1035.03 399.965 1292.45 717.5 1292.45ZM717.5 1293.45C1035.59 1293.45 1293.45 1035.59 1293.45 717.5C1293.45 399.413 1035.59 141.552 717.5 141.552C399.413 141.552 141.552 399.413 141.552 717.5C141.552 1035.59 399.413 1293.45 717.5 1293.45ZM1137.91 717.5C1137.91 949.686 949.686 1137.91 717.5 1137.91C485.314 1137.91 297.09 949.686 297.09 717.5C297.09 485.314 485.314 297.09 717.5 297.09C949.686 297.09 1137.91 485.314 1137.91 717.5ZM1138.91 717.5C1138.91 950.238 950.238 1138.91 717.5 1138.91C484.762 1138.91 296.09 950.238 296.09 717.5C296.09 484.762 484.762 296.09 717.5 296.09C950.238 296.09 1138.91 484.762 1138.91 717.5Z" fill="#373737"/>
</svg>
