<svg width="64" height="64" viewBox="0 0 64 64" fill="none" xmlns="http://www.w3.org/2000/svg">
<circle cx="32" cy="32" r="31.5" fill="#35293C" stroke="#8B57C2"/>
<circle cx="56" cy="11" r="3" fill="#8B57C2"/>
<circle cx="9" cy="53" r="6" fill="#8B57C2"/>
<path d="M45.545 30.065C46.0707 28.7781 46.2464 27.3749 46.0542 25.9981C45.862 24.6213 45.3088 23.3199 44.4507 22.2261C43.5927 21.1324 42.4604 20.2852 41.1689 19.7708C39.8774 19.2564 38.4727 19.0931 37.0976 19.2973C36.2455 18.1996 35.118 17.347 33.8298 16.826C32.5415 16.3049 31.1383 16.1341 29.7626 16.3307C28.387 16.5274 27.0878 17.0846 25.9972 17.9457C24.9065 18.8068 24.0631 19.9412 23.5527 21.2337C22.1753 21.4223 20.8724 21.9721 19.7763 22.8273C18.6803 23.6825 17.8301 24.8126 17.3123 26.1028C16.7945 27.393 16.6274 28.7972 16.8282 30.1729C17.0289 31.5485 17.5901 32.8465 18.455 33.935C18.033 34.9692 17.8358 36.0814 17.8766 37.1977C17.9173 38.314 18.1951 39.4089 18.6915 40.4096C19.1878 41.4103 19.8914 42.2939 20.7555 43.0019C21.6195 43.7098 22.6243 44.2258 23.7031 44.5156C24.3718 44.6986 25.0616 44.7932 25.7548 44.7969C26.1394 44.7965 26.5234 44.7678 26.9037 44.7111C27.7561 45.8084 28.8836 46.6606 30.1717 47.1814C31.4599 47.7021 32.8629 47.8727 34.2384 47.6759C35.6138 47.4791 36.9127 46.9219 38.0032 46.0608C39.0936 45.1998 39.9369 44.0656 40.4473 42.7733C41.8247 42.5847 43.1276 42.0349 44.2237 41.1797C45.3197 40.3245 46.1699 39.1944 46.6877 37.9042C47.2055 36.6141 47.3725 35.2098 47.1718 33.8341C46.9711 32.4585 46.4098 31.1605 45.545 30.072V30.065ZM39.7133 21.6542C41.1309 22.0332 42.3443 22.9511 43.0946 24.2121C43.8449 25.4732 44.0728 26.9775 43.7295 28.4042C43.596 28.3148 43.4595 28.2299 43.3203 28.1497L37.0625 24.53C36.8915 24.4312 36.6975 24.3793 36.5 24.3793C36.3025 24.3793 36.1085 24.4312 35.9375 24.53L29.75 28.1033V25.5045L35.4453 22.2167C36.0842 21.8456 36.7904 21.6048 37.523 21.5082C38.2556 21.4117 39 21.4613 39.7133 21.6542ZM34.25 33.2994L32 34.5987L29.75 33.2994V30.7006L32 29.4012L34.25 30.7006V33.2994ZM25.25 24.125C25.2505 23.0253 25.5734 21.9499 26.1786 21.0317C26.7839 20.1136 27.645 19.393 28.6554 18.9591C29.6659 18.5252 30.7813 18.3969 31.8639 18.5903C32.9465 18.7836 33.9486 19.29 34.7464 20.0469C34.6058 20.1186 34.4651 20.1875 34.3245 20.2747L28.0625 23.8817C27.8916 23.9803 27.7497 24.1222 27.651 24.293C27.5523 24.4638 27.5002 24.6576 27.5 24.8548V32L25.25 30.7006V24.125ZM19.7459 26.2245C20.4627 24.9745 21.6345 24.0495 23.0169 23.6426C23.0063 23.8032 23.0007 23.9641 23 24.125V31.3503C22.9999 31.5478 23.0519 31.7419 23.1507 31.9129C23.2494 32.084 23.3914 32.2261 23.5625 32.3248L29.75 35.8967L27.5 37.2031L21.8047 33.9083C20.5128 33.1623 19.5701 31.9337 19.184 30.4928C18.7979 29.0518 19 27.5165 19.7459 26.2245ZM24.2867 42.3458C22.8691 41.9668 21.6557 41.0489 20.9054 39.7878C20.155 38.5268 19.9272 37.0224 20.2705 35.5958C20.4041 35.6844 20.5391 35.7701 20.6797 35.8503L26.9375 39.47C27.1085 39.5687 27.3025 39.6207 27.5 39.6207C27.6975 39.6207 27.8915 39.5687 28.0625 39.47L34.25 35.8967V38.4955L28.5547 41.7833C27.9157 42.1544 27.2096 42.3952 26.477 42.4917C25.7444 42.5883 25 42.5387 24.2867 42.3458ZM38.75 39.875C38.7506 40.975 38.4286 42.051 37.824 42.97C37.2193 43.8889 36.3585 44.6103 35.3481 45.0451C34.3376 45.4798 33.2219 45.6088 32.1389 45.4159C31.0559 45.2231 30.0533 44.7169 29.255 43.9601C29.3956 43.8884 29.5362 43.8125 29.6769 43.7309L35.9375 40.1183C36.1083 40.0196 36.2503 39.8778 36.349 39.707C36.4477 39.5362 36.4998 39.3424 36.5 39.1451V32L38.75 33.2994V39.875ZM44.2541 37.7755C43.5373 39.0255 42.3655 39.9505 40.9831 40.3573C40.993 40.197 41 40.0367 41 39.875V32.6497C41 32.4522 40.9481 32.2581 40.8493 32.087C40.7506 31.916 40.6086 31.7739 40.4375 31.6751L34.25 28.1033L36.5 26.8039L42.1953 30.0917C43.4872 30.8377 44.4299 32.0662 44.816 33.5072C45.2021 34.9482 44.9999 36.4835 44.2541 37.7755Z" fill="#8B57C2"/>
</svg>
