<svg width="20" height="20" viewBox="0 0 20 20" fill="none" xmlns="http://www.w3.org/2000/svg">
<path d="M18.75 9.99996C18.752 10.2563 18.674 10.5069 18.527 10.7169C18.38 10.927 18.1712 11.086 17.9297 11.1718L12.9734 12.9742L11.1719 17.9296C11.0831 18.1689 10.9232 18.3752 10.7137 18.5209C10.5042 18.6666 10.2552 18.7447 9.99999 18.7447C9.74482 18.7447 9.49576 18.6666 9.28627 18.5209C9.07679 18.3752 8.91691 18.1689 8.82811 17.9296L7.02655 12.9734L2.0703 11.1718C1.83108 11.083 1.62476 10.9232 1.47907 10.7137C1.33337 10.5042 1.25528 10.2551 1.25528 9.99996C1.25528 9.74479 1.33337 9.49573 1.47907 9.28624C1.62476 9.07676 1.83108 8.91688 2.0703 8.82808L7.02655 7.02652L8.82811 2.07027C8.91691 1.83105 9.07679 1.62473 9.28627 1.47904C9.49576 1.33334 9.74482 1.25525 9.99999 1.25525C10.2552 1.25525 10.5042 1.33334 10.7137 1.47904C10.9232 1.62473 11.0831 1.83105 11.1719 2.07027L12.9742 7.02652L17.9297 8.82808C18.1712 8.91396 18.38 9.07296 18.527 9.28298C18.674 9.493 18.752 9.7436 18.75 9.99996Z" fill="#8B57C2"/>
</svg>
