<svg width="48" height="48" viewBox="0 0 48 48" fill="none" xmlns="http://www.w3.org/2000/svg">
<path d="M20 10H44M20 24H44M20 38H44" stroke="#8B57C2" stroke-width="2" stroke-linecap="round" stroke-linejoin="round"/>
<path d="M8 28C10.2091 28 12 26.2091 12 24C12 21.7909 10.2091 20 8 20C5.79086 20 4 21.7909 4 24C4 26.2091 5.79086 28 8 28Z" stroke="#8B57C2" stroke-width="2" stroke-linecap="round" stroke-linejoin="round"/>
<path d="M8 42C10.2091 42 12 40.2091 12 38C12 35.7909 10.2091 34 8 34C5.79086 34 4 35.7909 4 38C4 40.2091 5.79086 42 8 42Z" stroke="#8B57C2" stroke-width="2" stroke-linecap="round" stroke-linejoin="round"/>
<path d="M4 10L7 13L13 7" stroke="#8B57C2" stroke-width="2" stroke-linecap="round" stroke-linejoin="round"/>
</svg>
