<svg width="48" height="48" viewBox="0 0 48 48" fill="none" xmlns="http://www.w3.org/2000/svg">
<path d="M24 38C27.3137 38 30 35.3137 30 32C30 28.6863 27.3137 26 24 26C20.6863 26 18 28.6863 18 32C18 35.3137 20.6863 38 24 38Z" stroke="#8B57C2" stroke-width="1.5"/>
<path d="M18.226 31.9199L16.146 33.9999L13.19 36.8339C12.542 37.4559 12.218 37.7659 12.106 38.0299C11.9801 38.3107 11.9636 38.6284 12.0598 38.9207C12.156 39.213 12.3579 39.4588 12.626 39.6099C12.87 39.7479 13.312 39.7899 14.192 39.8779C14.688 39.9259 14.938 39.9499 15.146 40.0239C15.3722 40.1021 15.5788 40.2284 15.7514 40.3941C15.9241 40.5598 16.0587 40.7611 16.146 40.9839C16.224 41.1839 16.25 41.4219 16.3 41.8999C16.39 42.7439 16.436 43.1659 16.58 43.3999C16.908 43.9339 17.602 44.1439 18.228 43.8999C18.502 43.7899 18.826 43.4799 19.474 42.8599L24 38.5199L28.526 42.8599C29.174 43.4799 29.498 43.7899 29.772 43.8999C30.398 44.1439 31.092 43.9339 31.42 43.3999C31.564 43.1659 31.61 42.7439 31.7 41.8999C31.75 41.4219 31.776 41.1839 31.854 40.9839C31.9414 40.7612 32.0761 40.56 32.2487 40.3943C32.4213 40.2285 32.6278 40.1022 32.854 40.0239C33.064 39.9499 33.312 39.9259 33.808 39.8779C34.688 39.7919 35.13 39.7479 35.374 39.6099C35.6421 39.4588 35.844 39.213 35.9402 38.9207C36.0364 38.6284 36.0199 38.3107 35.894 38.0299C35.782 37.7659 35.458 37.4559 34.81 36.8339L31.852 33.9999L30 32.1459" stroke="#8B57C2" stroke-width="1.5"/>
<path d="M34.64 35.992C38.584 35.95 40.784 35.702 42.242 34.242C44 32.486 44 29.656 44 24V16C44 10.344 44 7.514 42.242 5.758C40.486 4 37.656 4 32 4H16C10.344 4 7.514 4 5.758 5.758C4 7.514 4 10.344 4 16V24C4 29.656 4 32.486 5.758 34.242C7.294 35.78 9.65 35.972 14 35.996" stroke="#8B57C2" stroke-width="1.5"/>
<path d="M18 12H30M14 19H34" stroke="#8B57C2" stroke-width="1.5" stroke-linecap="round"/>
</svg>
