<svg width="48" height="48" viewBox="0 0 48 48" fill="none" xmlns="http://www.w3.org/2000/svg">
<g clip-path="url(#clip0_4002_1037)">
<path d="M13.3333 13.833H13.8333V13.333V7.99967V7.49967H13.3333H8.00001H7.50001V7.99967V13.333V13.833H8.00001H13.3333ZM6.31174 6.3114C6.61805 6.00509 7.03349 5.83301 7.46668 5.83301H15.5V15.4997H5.83334V7.46634C5.83334 7.03315 6.00543 6.61771 6.31174 6.3114Z" fill="#8B57C2" stroke="#8B57C2"/>
<path d="M8.00001 34.1667H7.50001V34.6667V40V40.5H8.00001H13.3333H13.8333V40V34.6667V34.1667H13.3333H8.00001ZM6.31174 41.6883C6.00543 41.382 5.83334 40.9665 5.83334 40.5333V32.5H15.5V42.1667H7.46668C7.03349 42.1667 6.61805 41.9946 6.31174 41.6883Z" fill="#8B57C2" stroke="#8B57C2"/>
<path d="M34.6667 34.1667H34.1667V34.6667V40V40.5H34.6667H40H40.5V40V34.6667V34.1667H40H34.6667ZM40.5333 42.1667H32.5V32.5H42.1667V40.5333C42.1667 40.9665 41.9946 41.382 41.6883 41.6883C41.382 41.9946 40.9665 42.1667 40.5333 42.1667Z" fill="#8B57C2" stroke="#8B57C2"/>
<path d="M40 13.833H40.5V13.333V7.99967V7.49967H40H34.6667H34.1667V7.99967V13.333V13.833H34.6667H40ZM42.1667 7.46634V15.4997H32.5V5.83301H40.5333C40.9665 5.83301 41.382 6.00509 41.6883 6.3114C41.9946 6.61771 42.1667 7.03315 42.1667 7.46634Z" fill="#8B57C2" stroke="#8B57C2"/>
<path d="M26.6667 13.3337V10.667H21.3333V16.0003H24V13.3337H26.6667Z" fill="#8B57C2"/>
<path d="M16 16H18.6667V18.6667H16V16Z" fill="#8B57C2"/>
<path d="M18.6667 18.667H24V21.3337H18.6667V18.667Z" fill="#8B57C2"/>
<path d="M26.6667 7.99967V10.6663H29.3333V5.33301H18.6667V10.6663H21.3333V7.99967H26.6667Z" fill="#8B57C2"/>
<path d="M5.33334 18.667H8.00001V24.0003H5.33334V18.667Z" fill="#8B57C2"/>
<path d="M16 21.3337V24.0003H13.3333V18.667H10.6667V24.0003H8.00001V26.667H5.33334V29.3337H10.6667V26.667H13.3333V29.3337H16V26.667H18.6667V21.3337H16Z" fill="#8B57C2"/>
<path d="M26.6667 21.333H29.3333V23.9997H32V21.333H34.6667V18.6663H29.3333V13.333H26.6667V15.9997H24V18.6663H26.6667V21.333Z" fill="#8B57C2"/>
<path d="M24 39.9997H18.6667V42.6663H29.3333V39.9997H26.6667V37.333H24V39.9997Z" fill="#8B57C2"/>
<path d="M29.3333 26.6663V23.9997H26.6667V21.333H24V23.9997H21.3333V26.6663H24V29.333H26.6667V26.6663H29.3333Z" fill="#8B57C2"/>
<path d="M40 26.667H42.6667V29.3337H40V26.667Z" fill="#8B57C2"/>
<path d="M29.3333 26.667H37.3333V29.3337H29.3333V26.667Z" fill="#8B57C2"/>
<path d="M40 18.667H37.3333V21.3337H34.6667V24.0003H37.3333V26.667H40V24.0003H42.6667V21.3337H40V18.667Z" fill="#8B57C2"/>
<path d="M26.6667 29.333H29.3333V37.333H26.6667V29.333Z" fill="#8B57C2"/>
<path d="M18.6667 37.3337H21.3333V34.667H24V32.0003H21.3333V26.667H18.6667V37.3337Z" fill="#8B57C2"/>
</g>
<defs>
<clipPath id="clip0_4002_1037">
<rect width="48" height="48" fill="white"/>
</clipPath>
</defs>
</svg>
